<svg width="19" height="19" viewBox="0 0 19 19" fill="none" xmlns="http://www.w3.org/2000/svg">
<path fill-rule="evenodd" clip-rule="evenodd" d="M18.288 15.0046L13.5007 10.1435C13.9343 9.27771 14.2215 8.18965 14.2215 7.1016C14.2215 5.35837 13.5711 3.83159 12.5515 2.53294L11.1041 1.22845C9.93799 0.503079 8.561 0 7.1078 0C3.11735 0 0 3.25831 0 7.17765C0 11.097 3.19353 14.3611 7.1078 14.3611C8.20356 14.3611 9.28757 14.0628 10.2251 13.6299L11.1041 14.5015L12.7038 16.0927L14.9481 18.3507C15.3817 18.7836 16.0028 19 16.6239 19C17.245 19 17.8544 18.7836 18.288 18.3507C19.2373 17.403 19.2373 15.8762 18.288 15.0105V15.0046ZM7.03749 12.6881C3.99045 12.6881 1.44732 10.1435 1.44732 7.1016C1.44732 4.05973 3.99045 1.43904 7.03749 1.43904C10.1607 1.58528 12.7097 3.98368 12.7097 7.1016C12.7097 10.2195 10.1607 12.6881 7.03749 12.6881ZM17.204 17.2568C17.0634 17.403 16.8583 17.4732 16.665 17.4732C16.4716 17.4732 16.2606 17.403 16.12 17.2568L11.6139 12.6881C12.0475 12.4717 12.4108 11.9686 12.7097 11.5942L17.204 16.1687C17.497 16.4554 17.497 16.9643 17.204 17.2509V17.2568Z" fill="#454646"/>
</svg>