<?xml version="1.0" encoding="utf-8"?>
<!-- Generator: Adobe Illustrator 22.0.0, SVG Export Plug-In . SVG Version: 6.00 Build 0)  -->
<svg version="1.1" id="Capa_1" xmlns="http://www.w3.org/2000/svg" xmlns:xlink="http://www.w3.org/1999/xlink" x="0px" y="0px"
	 viewBox="0 0 56.7 56.7" style="enable-background:new 0 0 56.7 56.7;" xml:space="preserve">
<style type="text/css">
	.st0{fill-rule:evenodd;clip-rule:evenodd;fill:#444545;}
</style>
<path class="st0" d="M45.3,38.5l-8.2-8.3c0.7-1.5,1.2-3.3,1.2-5.2c0-3-1.1-5.6-2.9-7.8L33,15c-2-1.2-4.3-2.1-6.8-2.1
	c-6.8,0-12.1,5.6-12.1,12.3c0,6.8,5.4,12.3,12.1,12.3c1.9,0,3.7-0.5,5.3-1.2l1.5,1.5l2.7,2.7l3.8,3.9c0.7,0.7,1.8,1.1,2.9,1.1
	c1.1,0,2.1-0.4,2.8-1.1C46.9,42.6,46.9,40,45.3,38.5z M26.1,34.5c-5.2,0-9.5-4.3-9.5-9.6c0-5.3,4.3-9.7,9.5-9.7
	c5.3,0.2,9.7,4.4,9.7,9.7C35.7,30.2,31.4,34.5,26.1,34.5z M43.4,42.4c-0.2,0.2-0.6,0.4-0.9,0.4c-0.3,0-0.7-0.1-0.9-0.4l-7.7-7.8
	c0.7-0.4,1.4-1.2,1.9-1.9l7.7,7.8C43.9,41,43.9,41.9,43.4,42.4z"/>
</svg>
